<svg id="visual" viewBox="0 0 900 600" width="900" height="600" xmlns="http://www.w3.org/2000/svg" xmlns:xlink="http://www.w3.org/1999/xlink" version="1.1"><path d="M0 49L82 91L164 97L245 55L327 91L409 103L491 73L573 109L655 79L736 67L818 133L900 85L900 0L818 0L736 0L655 0L573 0L491 0L409 0L327 0L245 0L164 0L82 0L0 0Z" fill="#cccccc"></path><path d="M0 127L82 157L164 193L245 139L327 205L409 199L491 223L573 163L655 157L736 139L818 265L900 163L900 83L818 131L736 65L655 77L573 107L491 71L409 101L327 89L245 53L164 95L82 89L0 47Z" fill="#a4bab5"></path><path d="M0 211L82 241L164 295L245 175L327 247L409 271L491 325L573 235L655 253L736 211L818 307L900 211L900 161L818 263L736 137L655 155L573 161L491 221L409 197L327 203L245 137L164 191L82 155L0 125Z" fill="#7ba89e"></path><path d="M0 337L82 457L164 367L245 463L327 385L409 403L491 481L573 463L655 415L736 451L818 445L900 463L900 209L818 305L736 209L655 251L573 233L491 323L409 269L327 245L245 173L164 293L82 239L0 209Z" fill="#4f9688"></path><path d="M0 601L82 601L164 601L245 601L327 601L409 601L491 601L573 601L655 601L736 601L818 601L900 601L900 461L818 443L736 449L655 413L573 461L491 479L409 401L327 383L245 461L164 365L82 455L0 335Z" fill="#038373"></path></svg>