<svg id="visual" viewBox="0 0 900 600" width="900" height="600" xmlns="http://www.w3.org/2000/svg" xmlns:xlink="http://www.w3.org/1999/xlink" version="1.1"><rect x="0" y="0" width="900" height="600" fill="#001220"></rect><path d="M0 400L21.5 393.5C43 387 86 374 128.8 378.3C171.7 382.7 214.3 404.3 257.2 403.7C300 403 343 380 385.8 380.5C428.7 381 471.3 405 514.2 408.3C557 411.7 600 394.3 642.8 390.8C685.7 387.3 728.3 397.7 771.2 399.3C814 401 857 394 878.5 390.5L900 387L900 601L878.5 601C857 601 814 601 771.2 601C728.3 601 685.7 601 642.8 601C600 601 557 601 514.2 601C471.3 601 428.7 601 385.8 601C343 601 300 601 257.2 601C214.3 601 171.7 601 128.8 601C86 601 43 601 21.5 601L0 601Z" fill="#204265"></path><path d="M0 459L21.5 451.8C43 444.7 86 430.3 128.8 432C171.7 433.7 214.3 451.3 257.2 451.2C300 451 343 433 385.8 425.8C428.7 418.7 471.3 422.3 514.2 424C557 425.7 600 425.3 642.8 426.5C685.7 427.7 728.3 430.3 771.2 438.7C814 447 857 461 878.5 468L900 475L900 601L878.5 601C857 601 814 601 771.2 601C728.3 601 685.7 601 642.8 601C600 601 557 601 514.2 601C471.3 601 428.7 601 385.8 601C343 601 300 601 257.2 601C214.3 601 171.7 601 128.8 601C86 601 43 601 21.5 601L0 601Z" fill="#40467c"></path><path d="M0 457L21.5 463.7C43 470.3 86 483.7 128.8 486.5C171.7 489.3 214.3 481.7 257.2 482.8C300 484 343 494 385.8 489.8C428.7 485.7 471.3 467.3 514.2 461.7C557 456 600 463 642.8 471.2C685.7 479.3 728.3 488.7 771.2 485.2C814 481.7 857 465.3 878.5 457.2L900 449L900 601L878.5 601C857 601 814 601 771.2 601C728.3 601 685.7 601 642.8 601C600 601 557 601 514.2 601C471.3 601 428.7 601 385.8 601C343 601 300 601 257.2 601C214.3 601 171.7 601 128.8 601C86 601 43 601 21.5 601L0 601Z" fill="#6e4286"></path><path d="M0 498L21.5 499.2C43 500.3 86 502.7 128.8 501C171.7 499.3 214.3 493.7 257.2 497.8C300 502 343 516 385.8 523.8C428.7 531.7 471.3 533.3 514.2 533.5C557 533.7 600 532.3 642.8 530.7C685.7 529 728.3 527 771.2 521.7C814 516.3 857 507.7 878.5 503.3L900 499L900 601L878.5 601C857 601 814 601 771.2 601C728.3 601 685.7 601 642.8 601C600 601 557 601 514.2 601C471.3 601 428.7 601 385.8 601C343 601 300 601 257.2 601C214.3 601 171.7 601 128.8 601C86 601 43 601 21.5 601L0 601Z" fill="#9e3580"></path><path d="M0 543L21.5 543C43 543 86 543 128.8 544C171.7 545 214.3 547 257.2 547.3C300 547.7 343 546.3 385.8 544.5C428.7 542.7 471.3 540.3 514.2 538.7C557 537 600 536 642.8 534.7C685.7 533.3 728.3 531.7 771.2 533.3C814 535 857 540 878.5 542.5L900 545L900 601L878.5 601C857 601 814 601 771.2 601C728.3 601 685.7 601 642.8 601C600 601 557 601 514.2 601C471.3 601 428.7 601 385.8 601C343 601 300 601 257.2 601C214.3 601 171.7 601 128.8 601C86 601 43 601 21.5 601L0 601Z" fill="#c62368"></path></svg>